HIERARCHY
ROOT mixamorig:Hips
{
	OFFSET -0.000008 104.274872 1.554316
	CHANNELS 6 Xposition Yposition Zposition Xrotation Yrotation Zrotation
	JOINT mixamorig:Spine
	{
		OFFSET -0.000005 10.181595 0.131519
		CHANNELS 6 Xposition Yposition Zposition Xrotation Yrotation Zrotation
		JOINT mixamorig:Spine1
		{
			OFFSET -0.000000 9.893959 -1.470707
			CHANNELS 6 Xposition Yposition Zposition Xrotation Yrotation Zrotation
			JOINT mixamorig:Spine2
			{
				OFFSET -0.000000 9.220757 -1.370641
				CHANNELS 6 Xposition Yposition Zposition Xrotation Yrotation Zrotation
				JOINT mixamorig:Neck
				{
					OFFSET 0.000001 16.740417 -2.049036
					CHANNELS 6 Xposition Yposition Zposition Xrotation Yrotation Zrotation
					JOINT mixamorig:Head
					{
						OFFSET 0.000000 9.617874 1.685006
						CHANNELS 6 Xposition Yposition Zposition Xrotation Yrotation Zrotation
						JOINT mixamorig:HeadTop_End
						{
							OFFSET 0.000002 22.037354 7.501101
							CHANNELS 6 Xposition Yposition Zposition Xrotation Yrotation Zrotation
							End Site
							{
								OFFSET 0.000168 2310.654297 -282.823242
							}
						}
					}
				}
				JOINT mixamorig:RightShoulder
				{
					OFFSET -4.569970 11.014908 -2.160885
					CHANNELS 6 Xposition Yposition Zposition Xrotation Yrotation Zrotation
					JOINT mixamorig:RightArm
					{
						OFFSET -10.592851 -0.524811 -2.232101
						CHANNELS 6 Xposition Yposition Zposition Xrotation Yrotation Zrotation
						JOINT mixamorig:RightForeArm
						{
							OFFSET -27.841511 0.000031 -0.000004
							CHANNELS 6 Xposition Yposition Zposition Xrotation Yrotation Zrotation
							JOINT mixamorig:RightHand
							{
								OFFSET -28.328831 -0.000015 0.000015
								CHANNELS 6 Xposition Yposition Zposition Xrotation Yrotation Zrotation
								JOINT mixamorig:RightHandThumb1
								{
									OFFSET -2.464806 -1.573990 2.681852
									CHANNELS 6 Xposition Yposition Zposition Xrotation Yrotation Zrotation
									JOINT mixamorig:RightHandThumb2
									{
										OFFSET -3.215179 -1.872803 1.924282
										CHANNELS 6 Xposition Yposition Zposition Xrotation Yrotation Zrotation
										JOINT mixamorig:RightHandThumb3
										{
											OFFSET -2.654831 -1.527969 1.512609
											CHANNELS 6 Xposition Yposition Zposition Xrotation Yrotation Zrotation
											JOINT mixamorig:RightHandThumb4
											{
												OFFSET -2.018814 -1.152008 1.108052
												CHANNELS 6 Xposition Yposition Zposition Xrotation Yrotation Zrotation
												End Site
												{
													OFFSET -188.809540 -114.533607 132.431396
												}
											}
										}
									}
								}
								JOINT mixamorig:RightHandIndex1
								{
									OFFSET -9.108284 -0.517868 2.259835
									CHANNELS 6 Xposition Yposition Zposition Xrotation Yrotation Zrotation
									JOINT mixamorig:RightHandIndex2
									{
										OFFSET -3.699989 0.000000 0.001215
										CHANNELS 6 Xposition Yposition Zposition Xrotation Yrotation Zrotation
										JOINT mixamorig:RightHandIndex3
										{
											OFFSET -2.850006 0.000031 -0.000522
											CHANNELS 6 Xposition Yposition Zposition Xrotation Yrotation Zrotation
											JOINT mixamorig:RightHandIndex4
											{
												OFFSET -2.772186 -0.000015 -0.000020
												CHANNELS 6 Xposition Yposition Zposition Xrotation Yrotation Zrotation
												End Site
												{
													OFFSET -277.218445 0.000000 -0.050231
												}
											}
										}
									}
								}
								JOINT mixamorig:RightHandMiddle1
								{
									OFFSET -9.532516 -0.000031 -0.000023
									CHANNELS 6 Xposition Yposition Zposition Xrotation Yrotation Zrotation
									JOINT mixamorig:RightHandMiddle2
									{
										OFFSET -3.700005 -0.000015 0.003713
										CHANNELS 6 Xposition Yposition Zposition Xrotation Yrotation Zrotation
										JOINT mixamorig:RightHandMiddle3
										{
											OFFSET -2.949974 0.000015 -0.002054
											CHANNELS 6 Xposition Yposition Zposition Xrotation Yrotation Zrotation
											JOINT mixamorig:RightHandMiddle4
											{
												OFFSET -2.946640 0.000000 -0.000156
												CHANNELS 6 Xposition Yposition Zposition Xrotation Yrotation Zrotation
												End Site
												{
													OFFSET -294.664337 0.000000 -0.113670
												}
											}
										}
									}
								}
								JOINT mixamorig:RightHandRing1
								{
									OFFSET -9.103600 -0.043076 -1.865134
									CHANNELS 6 Xposition Yposition Zposition Xrotation Yrotation Zrotation
									JOINT mixamorig:RightHandRing2
									{
										OFFSET -3.379288 0.000000 -0.001055
										CHANNELS 6 Xposition Yposition Zposition Xrotation Yrotation Zrotation
										JOINT mixamorig:RightHandRing3
										{
											OFFSET -2.889687 -0.000015 0.000379
											CHANNELS 6 Xposition Yposition Zposition Xrotation Yrotation Zrotation
											JOINT mixamorig:RightHandRing4
											{
												OFFSET -2.638809 -0.000015 0.000941
												CHANNELS 6 Xposition Yposition Zposition Xrotation Yrotation Zrotation
												End Site
												{
													OFFSET -263.880371 0.000000 0.516020
												}
											}
										}
									}
								}
								JOINT mixamorig:RightHandPinky1
								{
									OFFSET -8.076683 -0.486710 -3.806280
									CHANNELS 6 Xposition Yposition Zposition Xrotation Yrotation Zrotation
									JOINT mixamorig:RightHandPinky2
									{
										OFFSET -3.600014 -0.000015 -0.003747
										CHANNELS 6 Xposition Yposition Zposition Xrotation Yrotation Zrotation
										JOINT mixamorig:RightHandPinky3
										{
											OFFSET -2.099983 0.000000 -0.005739
											CHANNELS 6 Xposition Yposition Zposition Xrotation Yrotation Zrotation
											JOINT mixamorig:RightHandPinky4
											{
												OFFSET -2.115768 -0.000031 -0.003680
												CHANNELS 6 Xposition Yposition Zposition Xrotation Yrotation Zrotation
												End Site
												{
													OFFSET -211.577087 0.000000 -0.350686
												}
											}
										}
									}
								}
							}
						}
					}
				}
				JOINT mixamorig:LeftShoulder
				{
					OFFSET 4.570447 11.014725 -2.160855
					CHANNELS 6 Xposition Yposition Zposition Xrotation Yrotation Zrotation
					JOINT mixamorig:LeftArm
					{
						OFFSET 10.592371 -0.524597 -2.232119
						CHANNELS 6 Xposition Yposition Zposition Xrotation Yrotation Zrotation
						JOINT mixamorig:LeftForeArm
						{
							OFFSET 27.841532 -0.000031 0.000026
							CHANNELS 6 Xposition Yposition Zposition Xrotation Yrotation Zrotation
							JOINT mixamorig:LeftHand
							{
								OFFSET 28.328846 -0.000061 0.000022
								CHANNELS 6 Xposition Yposition Zposition Xrotation Yrotation Zrotation
								JOINT mixamorig:LeftHandThumb1
								{
									OFFSET 2.466141 -1.576172 2.681732
									CHANNELS 6 Xposition Yposition Zposition Xrotation Yrotation Zrotation
									JOINT mixamorig:LeftHandThumb2
									{
										OFFSET 3.217812 -1.872070 1.916482
										CHANNELS 6 Xposition Yposition Zposition Xrotation Yrotation Zrotation
										JOINT mixamorig:LeftHandThumb3
										{
											OFFSET 2.656029 -1.528778 1.514513
											CHANNELS 6 Xposition Yposition Zposition Xrotation Yrotation Zrotation
											JOINT mixamorig:LeftHandThumb4
											{
												OFFSET 2.020889 -1.154053 1.115139
												CHANNELS 6 Xposition Yposition Zposition Xrotation Yrotation Zrotation
												End Site
												{
													OFFSET 190.885437 -115.081749 130.048782
												}
											}
										}
									}
								}
								JOINT mixamorig:LeftHandIndex1
								{
									OFFSET 9.109314 -0.518021 2.259871
									CHANNELS 6 Xposition Yposition Zposition Xrotation Yrotation Zrotation
									JOINT mixamorig:LeftHandIndex2
									{
										OFFSET 3.699989 0.000000 -0.000322
										CHANNELS 6 Xposition Yposition Zposition Xrotation Yrotation Zrotation
										JOINT mixamorig:LeftHandIndex3
										{
											OFFSET 2.850006 0.000000 0.000352
											CHANNELS 6 Xposition Yposition Zposition Xrotation Yrotation Zrotation
											JOINT mixamorig:LeftHandIndex4
											{
												OFFSET 2.774864 -0.000031 -0.000027
												CHANNELS 6 Xposition Yposition Zposition Xrotation Yrotation Zrotation
												End Site
												{
													OFFSET 277.486267 0.000000 -0.009857
												}
											}
										}
									}
								}
								JOINT mixamorig:LeftHandMiddle1
								{
									OFFSET 9.533394 0.000061 0.000044
									CHANNELS 6 Xposition Yposition Zposition Xrotation Yrotation Zrotation
									JOINT mixamorig:LeftHandMiddle2
									{
										OFFSET 3.699989 -0.000015 -0.000231
										CHANNELS 6 Xposition Yposition Zposition Xrotation Yrotation Zrotation
										JOINT mixamorig:LeftHandMiddle3
										{
											OFFSET 2.949997 -0.000015 -0.000059
											CHANNELS 6 Xposition Yposition Zposition Xrotation Yrotation Zrotation
											JOINT mixamorig:LeftHandMiddle4
											{
												OFFSET 2.952896 0.000031 0.000063
												CHANNELS 6 Xposition Yposition Zposition Xrotation Yrotation Zrotation
												End Site
												{
													OFFSET 295.289337 0.000000 0.022810
												}
											}
										}
									}
								}
								JOINT mixamorig:LeftHandRing1
								{
									OFFSET 9.104523 -0.042999 -1.865074
									CHANNELS 6 Xposition Yposition Zposition Xrotation Yrotation Zrotation
									JOINT mixamorig:LeftHandRing2
									{
										OFFSET 3.150009 -0.000031 0.000043
										CHANNELS 6 Xposition Yposition Zposition Xrotation Yrotation Zrotation
										JOINT mixamorig:LeftHandRing3
										{
											OFFSET 2.949982 -0.000015 0.000040
											CHANNELS 6 Xposition Yposition Zposition Xrotation Yrotation Zrotation
											JOINT mixamorig:LeftHandRing4
											{
												OFFSET 2.644348 0.000000 0.000057
												CHANNELS 6 Xposition Yposition Zposition Xrotation Yrotation Zrotation
												End Site
												{
													OFFSET 264.434631 0.000000 0.012105
												}
											}
										}
									}
								}
								JOINT mixamorig:LeftHandPinky1
								{
									OFFSET 8.077789 -0.486847 -3.806259
									CHANNELS 6 Xposition Yposition Zposition Xrotation Yrotation Zrotation
									JOINT mixamorig:LeftHandPinky2
									{
										OFFSET 3.599953 0.000031 0.014727
										CHANNELS 6 Xposition Yposition Zposition Xrotation Yrotation Zrotation
										JOINT mixamorig:LeftHandPinky3
										{
											OFFSET 2.100021 0.000015 0.007705
											CHANNELS 6 Xposition Yposition Zposition Xrotation Yrotation Zrotation
											JOINT mixamorig:LeftHandPinky4
											{
												OFFSET 2.125504 0.000031 0.007517
												CHANNELS 6 Xposition Yposition Zposition Xrotation Yrotation Zrotation
												End Site
												{
													OFFSET 212.550781 0.000000 0.625752
												}
											}
										}
									}
								}
							}
						}
					}
				}
			}
		}
	}
	JOINT mixamorig:RightUpLeg
	{
		OFFSET -8.207787 -6.751648 -1.599560
		CHANNELS 6 Xposition Yposition Zposition Xrotation Yrotation Zrotation
		JOINT mixamorig:RightLeg
		{
			OFFSET -0.000002 -44.370117 0.345942
			CHANNELS 6 Xposition Yposition Zposition Xrotation Yrotation Zrotation
			JOINT mixamorig:RightFoot
			{
				OFFSET 0.000003 -44.423679 -3.043532
				CHANNELS 6 Xposition Yposition Zposition Xrotation Yrotation Zrotation
				JOINT mixamorig:RightToeBase
				{
					OFFSET -0.000002 -8.728671 10.710558
					CHANNELS 6 Xposition Yposition Zposition Xrotation Yrotation Zrotation
					JOINT mixamorig:RightToe_End
					{
						OFFSET -0.000001 -0.000679 9.278119
						CHANNELS 6 Xposition Yposition Zposition Xrotation Yrotation Zrotation
						End Site
						{
							OFFSET 0.000000 -0.067690 927.812134
						}
					}
				}
			}
		}
	}
	JOINT mixamorig:LeftUpLeg
	{
		OFFSET 8.207793 -6.751686 -1.599556
		CHANNELS 6 Xposition Yposition Zposition Xrotation Yrotation Zrotation
		JOINT mixamorig:LeftLeg
		{
			OFFSET -0.000004 -44.370014 0.346954
			CHANNELS 6 Xposition Yposition Zposition Xrotation Yrotation Zrotation
			JOINT mixamorig:LeftFoot
			{
				OFFSET -0.000001 -44.423672 -3.044401
				CHANNELS 6 Xposition Yposition Zposition Xrotation Yrotation Zrotation
				JOINT mixamorig:LeftToeBase
				{
					OFFSET -0.000002 -8.728669 10.710558
					CHANNELS 6 Xposition Yposition Zposition Xrotation Yrotation Zrotation
					JOINT mixamorig:LeftToe_End
					{
						OFFSET -0.000003 -0.000679 9.278133
						CHANNELS 6 Xposition Yposition Zposition Xrotation Yrotation Zrotation
						End Site
						{
							OFFSET 0.000000 -0.068021 927.813477
						}
					}
				}
			}
		}
	}
}
MOTION
Frames: 3
Frame Time: 0.033333
0.000006 104.270477 1.554256 0.000010 0.000003 -0.000113 -0.000005 10.181587 0.131522 0.000001 -0.000003 0.000084 -0.000000 9.893967 -1.470711 0.000001 0.000000 -0.000000 -0.000000 9.220802 -1.370642 0.000000 -0.000000 -0.000000 0.000001 16.740433 -2.049030 0.000000 -0.000000 -0.000000 0.000000 9.617859 1.685014 0.000000 0.000000 0.000000 0.000002 22.037384 7.501101 0.000000 -0.000000 0.000000 -4.569968 11.014880 -2.160881 0.000008 0.000001 -0.000038 -10.592874 -0.524734 -2.231939 75.848001 22.622381 -17.716375 -27.841528 0.000003 0.000548 -58.372996 107.598415 74.699477 -28.328821 -0.000005 0.000025 -0.000321 -0.000046 0.000007 -2.464431 -1.573915 2.682370 -32.564751 -155.375684 22.797204 -3.215289 -1.872551 1.924662 157.877664 33.441156 11.319848 -2.654926 -1.527935 1.513114 149.619979 24.293385 -54.127145 -2.018830 -1.151998 1.108069 -0.000006 0.000004 0.000003 -9.108401 -0.517559 2.260075 90.260383 18.381468 -18.511549 -3.700077 0.000307 0.001491 88.366768 17.732351 -17.217525 -2.850086 0.000350 -0.000275 88.681216 13.900122 -13.585857 -2.772156 0.000000 -0.000018 -0.000001 -0.000001 -0.000000 -9.532588 0.000273 0.000233 91.301502 15.283580 -15.774918 -3.700073 0.000319 0.003958 90.787195 13.570449 -13.658894 -2.950059 0.000335 -0.001823 90.735211 12.310655 -12.461153 -2.946619 0.000002 -0.000154 -0.000001 -0.000001 0.000001 -9.103687 -0.042746 -1.864872 91.107805 15.554434 -15.809482 -3.379327 0.000326 -0.000824 91.710022 10.503884 -10.838342 -2.889752 0.000339 0.000621 92.699095 7.282449 -7.680779 -2.638813 -0.000017 0.000942 -0.000001 0.000001 -0.000002 -8.076754 -0.486381 -3.806001 90.127228 16.257460 -16.143388 -3.600032 0.000290 -0.003494 92.720843 9.029700 -9.092210 -2.100011 0.000327 -0.005468 92.000995 4.990724 -4.942905 -2.115756 -0.000027 -0.003680 -0.000001 -0.000000 0.000001 4.570446 11.014691 -2.160851 -0.000018 0.000010 -0.000021 10.592399 -0.524477 -2.232362 72.242481 -13.001788 9.507605 27.841820 0.000058 -0.000216 101.377978 -72.473641 83.660371 28.328833 -0.000028 0.000019 0.000022 -0.000088 -0.000000 2.465934 -1.576133 2.681918 -47.712662 167.936812 9.795797 3.217812 -1.871767 1.916377 156.595064 -28.719272 13.743335 2.656089 -1.528654 1.514475 136.032247 -28.851692 48.858399 2.020869 -1.154053 1.115152 0.000003 0.000002 -0.000001 9.109387 -0.517875 2.259730 77.889804 -15.093557 12.212969 3.700048 0.000127 -0.000464 74.128617 -17.173351 13.026627 2.850053 0.000143 0.000219 72.202783 -14.040801 10.262291 2.774863 -0.000029 -0.000028 -0.000000 0.000001 0.000000 9.533460 0.000192 -0.000089 77.884538 -13.038117 10.545097 3.700058 0.000150 -0.000371 81.126781 -15.429022 13.226102 2.950055 0.000127 -0.000207 80.266361 -18.724538 15.829341 2.952888 -0.000018 0.000064 -0.000000 -0.000001 0.000000 9.104582 -0.042867 -1.865229 76.148031 -11.435176 8.970916 3.150043 0.000180 -0.000100 82.215458 -14.129247 12.345610 2.950047 0.000144 -0.000063 81.789671 -16.451931 14.274569 2.644310 0.000032 0.000058 -0.000000 0.000000 0.000000 8.077853 -0.486733 -3.806400 70.647085 -12.911718 9.576341 3.599993 0.000167 0.014566 71.985864 -12.566033 9.516696 2.100039 0.000167 0.007556 76.067468 -12.861823 10.461635 2.125499 -0.000014 0.007515 0.000002 -0.000000 -0.000001 -8.207786 -6.751667 -1.599560 -0.077001 -0.000003 0.000080 -0.000002 -44.370110 0.345938 0.153719 -0.000000 -0.000000 0.000000 -44.423679 -3.043532 -0.076700 0.000000 -0.000002 -0.000006 -8.728667 10.710559 -0.000009 -0.000000 -0.000000 -0.000001 -0.000679 9.278123 0.000000 -0.000000 -0.000000 8.207792 -6.751710 -1.599556 -0.074518 -0.000003 0.000081 -0.000002 -44.370014 0.346960 0.148822 0.000002 0.000000 -0.000001 -44.423664 -3.044403 -0.074314 0.000000 -0.000002 -0.000004 -8.728671 10.710558 0.000007 -0.000000 -0.000000 0.000000 -0.000680 9.278137 -0.000000 0.000000 -0.000001 
0.000006 104.270477 1.554256 0.000010 0.000003 -0.000113 -0.000005 10.181587 0.131522 0.000001 -0.000003 0.000084 -0.000000 9.893967 -1.470711 0.000001 0.000000 -0.000000 -0.000000 9.220802 -1.370642 0.000000 -0.000000 -0.000000 0.000001 16.740433 -2.049030 0.000000 -0.000000 -0.000000 0.000000 9.617859 1.685014 0.000000 0.000000 0.000000 0.000002 22.037384 7.501101 0.000000 -0.000000 0.000000 -4.569968 11.014880 -2.160881 0.000008 0.000001 -0.000038 -10.592868 -0.524788 -2.231886 75.917437 33.934914 -26.777289 -27.841528 0.000003 0.000542 -56.340192 103.558392 68.432977 -28.328800 -0.000006 0.000024 -0.000323 -0.000041 0.000002 -2.464408 -1.573877 2.682372 -37.745008 -156.856729 12.523630 -3.215261 -1.872577 1.924645 155.855915 33.369763 13.063119 -2.654944 -1.527900 1.513109 147.026775 26.016454 -46.319143 -2.018831 -1.152010 1.108070 -0.000003 0.000001 0.000004 -9.108377 -0.517567 2.260082 89.795404 17.913544 -17.897956 -3.700087 0.000290 0.001472 86.870273 16.428680 -15.542797 -2.850084 0.000352 -0.000300 86.740220 12.011000 -11.349964 -2.772150 0.000001 -0.000021 0.000001 0.000000 0.000001 -9.532579 0.000262 0.000225 89.987947 15.877890 -16.016712 -3.700080 0.000306 0.003955 89.717328 11.986953 -11.834292 -2.950043 0.000335 -0.001821 92.004117 10.582505 -10.949784 -2.946636 0.000001 -0.000156 -0.000001 -0.000002 -0.000002 -9.103691 -0.042772 -1.864870 89.869607 16.748391 -16.666459 -3.379316 0.000334 -0.000811 91.942372 8.896920 -9.220237 -2.889736 0.000361 0.000618 96.338801 5.313659 -5.985283 -2.638796 0.000001 0.000939 -0.000002 0.000002 -0.000002 -8.076735 -0.486388 -3.806016 89.226818 16.455966 -16.090592 -3.600028 0.000295 -0.003509 92.335825 7.607724 -7.557831 -2.100013 0.000332 -0.005489 95.024638 3.583037 -3.679341 -2.115769 -0.000056 -0.003680 -0.000000 0.000000 -0.000009 4.570446 11.014691 -2.160851 -0.000018 0.000010 -0.000021 10.592404 -0.524474 -2.232357 71.613290 -15.335902 11.095134 27.841829 0.000050 -0.000201 103.767328 -74.041464 87.733520 28.328833 -0.000028 0.000021 0.000020 -0.000089 -0.000000 2.466134 -1.576169 2.681886 -25.032773 161.448419 -42.311997 3.217858 -1.871808 1.916406 162.479286 -24.120859 33.065591 2.656090 -1.528710 1.514498 133.970021 -29.565618 61.421439 2.020883 -1.154084 1.115144 0.000001 0.000005 0.000006 9.109376 -0.517887 2.259742 79.429745 -19.299353 16.067342 3.700037 0.000142 -0.000470 75.623165 -14.046308 10.935147 2.850049 0.000159 0.000191 74.160609 -10.808081 8.177663 2.774889 -0.000030 -0.000022 -0.000000 -0.000001 -0.000001 9.533466 0.000184 -0.000087 78.864916 -18.878887 15.563102 3.700044 0.000169 -0.000392 80.092636 -12.686171 10.672959 2.950071 0.000160 -0.000214 80.368964 -10.849996 9.174215 2.952865 -0.000016 0.000064 0.000000 0.000003 0.000000 9.104584 -0.042876 -1.865225 77.735496 -18.259739 14.762074 3.150047 0.000187 -0.000078 82.630918 -13.251913 11.661850 2.950015 0.000164 -0.000095 83.873931 -9.953291 8.948056 2.644311 0.000031 0.000054 0.000001 -0.000002 -0.000000 8.077839 -0.486740 -3.806403 74.087048 -19.917561 15.563959 3.600009 0.000145 0.014578 74.103919 -16.844669 13.161927 2.100035 0.000167 0.007543 76.419811 -10.695104 8.804814 2.125500 0.000001 0.007513 -0.000002 0.000000 -0.000002 -8.207786 -6.751667 -1.599560 -0.077001 -0.000003 0.000080 -0.000002 -44.370110 0.345938 0.153719 -0.000000 -0.000000 0.000000 -44.423679 -3.043532 -0.076700 0.000000 -0.000002 -0.000006 -8.728667 10.710559 -0.000009 -0.000000 -0.000000 -0.000001 -0.000679 9.278123 0.000000 -0.000000 -0.000000 8.207792 -6.751710 -1.599556 -0.074518 -0.000003 0.000081 -0.000002 -44.370014 0.346960 0.148822 0.000002 0.000000 -0.000001 -44.423664 -3.044403 -0.074314 0.000000 -0.000002 -0.000004 -8.728671 10.710558 0.000007 -0.000000 -0.000000 0.000000 -0.000680 9.278137 -0.000000 0.000000 -0.000001 
0.000006 104.270477 1.554256 0.000010 0.000003 -0.000113 -0.000005 10.181587 0.131522 0.000001 -0.000003 0.000084 -0.000000 9.893967 -1.470711 0.000001 0.000000 -0.000000 -0.000000 9.220802 -1.370642 0.000000 -0.000000 -0.000000 0.000001 16.740433 -2.049030 0.000000 -0.000000 -0.000000 0.000000 9.617859 1.685014 0.000000 0.000000 0.000000 0.000002 22.037384 7.501101 0.000000 -0.000000 0.000000 -4.569968 11.014880 -2.160881 0.000008 0.000001 -0.000038 -10.592865 -0.524790 -2.231866 76.040298 35.525791 -28.122850 -27.841534 -0.000005 0.000543 -55.501137 102.403080 66.402997 -28.328814 0.000008 0.000031 -0.000321 -0.000042 0.000004 -2.464398 -1.573884 2.682387 -35.639814 -155.298530 16.338572 -3.215257 -1.872579 1.924643 155.614044 33.427878 13.676644 -2.654951 -1.527916 1.513115 146.313334 26.197561 -46.504245 -2.018816 -1.152000 1.108061 -0.000002 0.000000 0.000007 -9.108377 -0.517558 2.260095 89.461968 17.810205 -17.693282 -3.700078 0.000289 0.001475 86.696663 16.513867 -15.576849 -2.850096 0.000353 -0.000304 86.496525 12.275253 -11.550903 -2.772162 0.000001 -0.000022 -0.000001 -0.000000 -0.000001 -9.532573 0.000265 0.000231 89.865277 15.642960 -15.748164 -3.700079 0.000310 0.003965 89.840682 12.001812 -11.874419 -2.950044 0.000333 -0.001819 92.107089 10.853731 -11.250534 -2.946639 0.000003 -0.000156 0.000001 -0.000000 -0.000000 -9.103683 -0.042756 -1.864870 90.337154 16.698211 -16.750636 -3.379311 0.000325 -0.000819 92.121295 8.849336 -9.199592 -2.889747 0.000352 0.000637 96.345207 5.528647 -6.226201 -2.638811 -0.000017 0.000941 -0.000003 -0.000002 0.000001 -8.076736 -0.486403 -3.805995 89.748891 16.719653 -16.498134 -3.600036 0.000286 -0.003496 92.416407 7.857645 -7.827806 -2.100007 0.000313 -0.005463 95.219865 3.804677 -3.933920 -2.115785 -0.000055 -0.003676 -0.000003 -0.000001 -0.000005 4.570446 11.014691 -2.160851 -0.000018 0.000010 -0.000021 10.592430 -0.524478 -2.232383 71.112200 -23.359225 16.810163 27.841816 0.000028 -0.000186 105.695203 -75.282017 91.012803 28.328833 -0.000029 0.000022 0.000022 -0.000089 -0.000000 2.466241 -1.576068 2.681843 4.136152 166.670044 -94.994264 3.217868 -1.871842 1.916425 160.819277 -21.842528 43.883098 2.656096 -1.528670 1.514491 136.096560 -28.761595 56.677927 2.020895 -1.154050 1.115155 0.000002 0.000003 0.000001 9.109386 -0.517864 2.259752 83.705608 -18.465976 16.557963 3.700049 0.000139 -0.000471 80.124191 -13.343109 11.250068 2.850030 0.000171 0.000199 78.628045 -10.921809 8.951731 2.774894 -0.000031 -0.000025 0.000001 -0.000001 0.000000 9.533472 0.000180 -0.000086 78.946421 -19.111585 15.778724 3.700037 0.000156 -0.000371 81.437083 -12.997654 11.197154 2.950046 0.000162 -0.000191 81.766592 -11.006833 9.538650 2.952866 -0.000015 0.000062 -0.000001 0.000001 -0.000000 9.104602 -0.042878 -1.865204 78.294759 -19.124856 15.619038 3.150057 0.000179 -0.000073 83.031058 -14.759252 13.082300 2.950022 0.000177 -0.000078 83.651082 -10.779044 9.653448 2.644334 0.000032 0.000057 0.000001 -0.000000 -0.000000 8.077847 -0.486742 -3.806394 73.846141 -21.238878 16.509807 3.599994 0.000136 0.014582 72.760830 -18.996735 14.459676 2.100037 0.000158 0.007556 74.693467 -12.557357 9.972403 2.125504 -0.000001 0.007505 0.000000 -0.000001 0.000000 -8.207786 -6.751667 -1.599560 -0.077001 -0.000003 0.000080 -0.000002 -44.370110 0.345938 0.153719 -0.000000 -0.000000 0.000000 -44.423679 -3.043532 -0.076700 0.000000 -0.000002 -0.000006 -8.728667 10.710559 -0.000009 -0.000000 -0.000000 -0.000001 -0.000679 9.278123 0.000000 -0.000000 -0.000000 8.207792 -6.751710 -1.599556 -0.074518 -0.000003 0.000081 -0.000002 -44.370014 0.346960 0.148822 0.000002 0.000000 -0.000001 -44.423664 -3.044403 -0.074314 0.000000 -0.000002 -0.000004 -8.728671 10.710558 0.000007 -0.000000 -0.000000 0.000000 -0.000680 9.278137 -0.000000 0.000000 -0.000001 
